<?xml version="1.0" standalone="no"?>
<!DOCTYPE svg PUBLIC "-//W3C//DTD SVG 20010904//EN"
 "http://www.w3.org/TR/2001/REC-SVG-20010904/DTD/svg10.dtd">
<svg version="1.0" xmlns="http://www.w3.org/2000/svg"
 width="256.000000pt" height="256.000000pt" viewBox="0 0 256.000000 256.000000"
 preserveAspectRatio="xMidYMid meet">
<metadata>
Created by potrace 1.14, written by Peter Selinger 2001-2017
</metadata>
<g transform="translate(0.000000,256.000000) scale(0.100000,-0.100000)"
fill="#000000" stroke="none">
<path d="M1495 2410 c-4 -14 -12 -28 -18 -31 -6 -4 1 -17 15 -30 60 -56 89
-79 100 -79 6 0 9 -3 5 -6 -3 -3 4 -16 16 -29 36 -37 72 -88 70 -97 -2 -4 1
-8 6 -8 11 0 101 -177 93 -184 -3 -4 3 -13 14 -21 10 -8 15 -15 11 -15 -4 0
-3 -9 3 -19 9 -19 17 -20 85 -12 6 1 2 8 -8 15 -14 11 -15 15 -5 19 10 4 10 6
1 6 -7 1 -13 12 -13 26 0 14 -4 25 -9 25 -5 0 -12 14 -16 30 -4 17 -11 30 -15
30 -5 0 -7 7 -4 15 4 8 2 15 -3 15 -5 0 -15 16 -23 35 -8 19 -18 35 -22 35 -5
0 -7 4 -4 9 3 5 -1 12 -10 15 -8 3 -12 10 -9 16 3 5 1 10 -4 10 -6 0 -11 4
-11 9 0 9 -26 43 -66 87 -12 12 -19 25 -16 28 3 3 0 6 -6 6 -15 0 -58 42 -54
53 1 5 -1 6 -6 3 -5 -3 -20 6 -35 20 -14 13 -30 24 -36 24 -5 0 -11 6 -14 13
-2 6 -7 1 -12 -13z"/>
<path d="M1013 2293 c-3 -7 -9 -10 -14 -8 -5 3 -16 -4 -26 -16 -10 -12 -24
-28 -31 -35 -8 -8 -11 -21 -8 -29 3 -8 2 -15 -3 -15 -12 0 -9 -33 4 -42 6 -5
5 -8 -3 -8 -10 0 -10 -4 2 -16 19 -18 21 -38 4 -28 -12 7 19 -35 34 -46 3 -3
8 -12 10 -19 5 -21 32 -49 42 -43 5 3 6 0 2 -6 -3 -6 5 -23 19 -39 41 -47 45
-52 45 -62 0 -5 3 -11 8 -13 10 -4 86 -98 79 -98 -4 0 4 -10 16 -23 36 -39 57
-67 57 -77 0 -6 7 -13 15 -16 8 -4 12 -10 9 -15 -3 -5 -1 -9 4 -9 11 0 93
-106 91 -116 0 -4 6 -11 15 -16 19 -10 21 -34 4 -44 -7 -4 -8 -3 -4 4 4 7 3
12 -2 12 -14 0 -57 41 -54 51 1 5 -5 9 -13 9 -8 0 -15 4 -15 9 0 5 -18 27 -40
49 -22 21 -40 42 -40 46 0 4 -16 22 -35 40 -19 19 -35 37 -35 42 0 5 -9 16
-20 24 -11 8 -20 20 -20 28 0 7 -4 10 -10 7 -5 -3 -10 -1 -10 4 0 6 -15 26
-34 46 -19 19 -32 35 -29 35 3 0 -8 14 -25 30 -18 17 -30 30 -28 30 5 0 -45
60 -81 97 -13 13 -23 28 -23 33 0 6 -9 15 -20 22 -11 7 -20 18 -20 25 0 7 -4
13 -8 13 -5 0 -19 10 -32 22 -13 12 -30 23 -38 25 -8 1 -19 7 -23 14 -12 20
-90 18 -120 -2 -14 -10 -29 -16 -32 -13 -3 3 -8 -4 -12 -15 -3 -12 -10 -21
-14 -21 -6 0 -13 -30 -12 -55 1 -17 8 -60 11 -62 1 -2 3 -6 4 -10 5 -20 41
-79 55 -90 9 -7 12 -13 8 -13 -4 0 13 -20 39 -45 25 -25 44 -45 41 -45 -3 0
12 -17 34 -38 21 -22 39 -42 39 -45 0 -4 18 -24 40 -44 22 -21 40 -44 40 -51
0 -7 5 -10 10 -7 6 3 10 0 10 -7 0 -7 9 -19 20 -26 11 -7 20 -19 20 -28 0 -8
5 -12 10 -9 6 3 10 2 10 -3 0 -5 16 -25 35 -45 20 -21 33 -37 30 -37 -3 0 7
-13 22 -28 15 -16 32 -26 37 -24 5 3 6 1 3 -5 -4 -6 5 -20 18 -33 13 -13 22
-27 19 -31 -3 -5 2 -6 11 -3 9 4 15 2 13 -4 -2 -5 11 -23 29 -40 17 -17 29
-33 25 -36 -3 -3 0 -6 6 -6 7 0 12 -6 12 -14 0 -8 6 -17 13 -19 9 -4 8 -8 -3
-16 -12 -9 -24 -2 -56 33 -23 25 -45 42 -48 39 -3 -4 -6 0 -6 7 0 7 -18 31
-40 52 -22 22 -40 44 -40 48 0 5 -12 16 -27 24 -16 8 -25 15 -21 16 4 0 -15
22 -42 49 -27 27 -46 52 -43 55 4 3 -1 6 -10 6 -10 0 -17 4 -17 9 0 6 -22 32
-50 59 -27 27 -50 54 -50 61 0 6 -3 10 -8 9 -4 -2 -26 16 -48 40 -23 23 -46
42 -51 42 -5 0 -15 6 -22 13 -6 6 -15 12 -19 13 -4 0 -15 4 -25 9 -10 4 -21 5
-24 2 -3 -4 -15 -2 -26 4 -15 9 -18 8 -12 -2 6 -9 2 -11 -13 -7 -12 4 -22 2
-22 -3 0 -5 -4 -9 -10 -9 -16 0 -47 -35 -42 -48 2 -7 -1 -12 -7 -12 -6 0 -11
-21 -11 -50 0 -27 5 -50 10 -50 6 0 10 -10 10 -22 1 -26 24 -61 33 -51 4 3 7
1 7 -6 0 -15 45 -61 60 -61 5 0 9 -3 8 -7 -3 -10 30 -59 37 -55 3 1 5 -1 6 -5
0 -5 11 -14 25 -21 13 -7 24 -19 24 -27 0 -8 6 -15 14 -15 7 0 16 -9 19 -21 3
-12 10 -18 16 -14 6 3 11 1 11 -5 0 -7 11 -21 25 -32 14 -11 22 -24 19 -30 -4
-6 -3 -9 2 -6 10 5 45 -28 37 -35 -2 -3 5 -8 16 -12 12 -4 18 -11 15 -17 -5
-7 -1 -9 9 -5 13 5 17 1 17 -14 0 -11 5 -17 10 -14 6 3 10 2 10 -3 0 -13 88
-101 94 -94 3 3 6 0 6 -6 0 -11 87 -102 98 -102 4 0 13 -9 19 -19 10 -15 9
-20 -2 -25 -8 -3 -15 0 -15 6 0 6 -3 8 -6 5 -4 -3 -19 7 -34 23 -16 17 -30 30
-33 30 -3 0 -28 22 -57 50 -29 27 -56 50 -61 50 -5 0 -9 7 -9 17 0 9 -3 14 -6
10 -4 -3 -23 11 -44 33 -21 22 -40 36 -44 33 -3 -4 -6 1 -6 10 0 10 -5 17 -10
17 -6 0 -24 13 -41 30 -18 16 -35 27 -40 24 -5 -3 -9 0 -9 6 0 6 -4 9 -9 5 -5
-3 -12 -1 -15 4 -7 11 -75 9 -93 -2 -7 -5 -13 -5 -13 -1 0 4 -13 -7 -30 -24
-17 -19 -30 -43 -30 -57 0 -15 -4 -23 -10 -20 -6 3 -7 -1 -4 -9 3 -9 9 -16 13
-16 4 0 8 -7 8 -15 0 -23 36 -85 50 -85 7 0 13 -4 13 -9 0 -13 79 -91 92 -91
6 0 8 -3 5 -7 -8 -7 34 -39 46 -35 5 1 6 -1 4 -5 -6 -10 60 -73 67 -65 3 3 6
-2 6 -11 0 -9 3 -16 8 -15 4 2 22 -12 40 -30 18 -17 37 -32 43 -32 6 0 8 -4 4
-9 -3 -5 4 -12 15 -16 11 -4 18 -11 15 -16 -4 -5 1 -9 10 -9 8 0 18 -7 21 -15
4 -8 13 -15 21 -15 8 0 11 -4 8 -10 -3 -5 -2 -10 2 -10 5 0 23 -14 41 -30 18
-17 38 -30 43 -30 6 0 7 -4 4 -10 -3 -5 -2 -10 2 -10 8 0 76 -57 139 -117 19
-17 34 -29 34 -26 0 3 8 -4 19 -15 10 -12 22 -22 27 -22 5 0 15 -9 22 -20 7
-12 18 -18 24 -14 7 5 9 2 6 -8 -4 -8 -1 -15 5 -15 7 0 34 -15 62 -34 27 -18
54 -34 60 -35 5 -1 24 -8 40 -15 39 -16 56 -20 78 -20 11 0 15 -5 10 -12 -5
-9 -2 -8 9 0 8 7 17 10 20 7 3 -3 20 -7 37 -9 23 -3 30 -1 24 8 -5 9 -3 9 8 1
8 -6 23 -10 34 -7 11 2 33 6 50 9 16 2 33 8 38 13 5 5 16 7 23 4 8 -3 14 0 14
6 0 6 7 8 15 5 8 -3 26 4 41 15 15 12 31 21 36 21 6 0 29 15 51 33 23 17 43
31 44 29 4 -3 28 16 51 40 9 10 23 18 31 18 8 0 11 3 8 7 -4 3 5 15 20 25 16
10 25 18 22 18 -4 0 12 19 36 43 23 24 46 53 50 65 3 12 11 20 16 17 8 -6 13
8 10 28 0 4 3 7 9 7 5 0 10 7 10 15 0 8 5 15 11 15 5 0 8 4 4 9 -3 5 0 15 7
23 7 7 14 22 16 33 2 11 10 32 17 48 8 17 10 27 3 27 -7 0 -7 4 0 13 14 16 14
207 0 207 -6 0 -6 6 2 15 7 8 8 15 3 15 -5 0 -10 7 -10 15 0 8 5 15 10 15 5 0
4 7 -3 15 -7 9 -10 18 -7 21 3 3 2 18 -3 34 -5 18 -4 32 3 39 7 7 8 11 1 11
-10 0 -15 31 -15 82 0 10 -4 20 -8 23 -5 2 -7 16 -6 30 2 14 -1 25 -6 25 -5 0
-8 12 -6 28 2 16 -2 32 -12 40 -9 8 -10 10 -2 6 11 -5 13 1 9 30 -2 20 -2 36
2 36 3 0 6 17 8 38 5 68 7 80 15 75 6 -4 12 28 8 50 0 4 4 7 9 7 5 0 9 3 8 8
-3 15 35 92 46 92 6 0 4 4 -4 10 -12 8 -12 10 3 16 9 3 14 10 11 15 -3 5 2 12
10 15 9 3 13 10 10 15 -3 5 0 9 6 9 6 0 9 4 6 9 -4 5 -2 21 4 36 5 14 6 24 1
21 -9 -6 -26 22 -23 37 1 4 -5 7 -13 7 -8 0 -15 5 -15 10 0 6 -8 10 -18 10
-10 0 -22 3 -26 8 -4 4 -24 7 -45 8 -20 0 -43 4 -50 9 -10 6 -12 4 -7 -4 5 -8
3 -12 -5 -11 -20 3 -59 -11 -59 -21 0 -5 -7 -6 -15 -3 -8 4 -15 1 -15 -5 0 -6
-7 -11 -16 -11 -8 0 -12 -4 -9 -10 3 -5 -1 -10 -9 -10 -9 0 -16 -3 -16 -7 0
-5 -13 -22 -30 -39 -16 -18 -26 -35 -23 -38 4 -3 1 -6 -5 -6 -6 0 -14 -15 -17
-32 -4 -18 -10 -37 -13 -43 -9 -14 -8 -47 1 -67 4 -10 4 -18 0 -18 -5 0 -9
-13 -9 -30 -2 -43 -30 -95 -66 -124 -24 -18 -35 -22 -40 -13 -6 9 -8 8 -8 -3
0 -9 -3 -11 -8 -5 -4 6 -17 11 -30 12 -12 2 -28 7 -35 13 -48 40 -65 59 -60
64 4 3 -1 6 -10 6 -10 0 -17 4 -17 9 0 5 -12 23 -27 39 -16 17 -38 43 -50 59
-19 25 -41 53 -72 89 -5 7 -7 15 -4 18 4 3 -1 6 -11 6 -9 0 -14 5 -11 10 3 6
1 10 -6 10 -7 0 -10 3 -6 6 3 3 -5 16 -19 29 -13 12 -24 27 -24 34 0 6 -5 11
-11 11 -5 0 -8 4 -5 9 3 5 -1 11 -9 15 -8 3 -15 11 -15 18 0 8 -9 20 -19 28
-11 7 -18 17 -15 22 3 4 1 8 -5 8 -6 0 -22 20 -37 45 -14 25 -30 45 -35 45 -5
0 -9 6 -9 13 0 6 -14 27 -30 45 -16 19 -32 42 -35 53 -4 10 -9 18 -13 16 -4
-1 -8 2 -9 6 -2 6 -61 58 -108 95 -6 5 -17 6 -24 4 -8 -3 -11 0 -8 5 3 5 -10
9 -30 9 -19 0 -37 -6 -40 -13z"/>
<path d="M1376 2248 c-4 -17 1 -28 21 -43 36 -26 103 -90 103 -98 0 -4 10 -18
22 -32 12 -14 29 -41 38 -60 9 -20 19 -32 23 -28 4 3 7 -5 7 -18 0 -13 7 -33
15 -43 8 -10 12 -23 9 -27 -3 -5 0 -9 5 -9 6 0 10 -3 10 -7 -6 -35 24 -55 59
-42 18 7 20 12 13 26 -9 17 -21 48 -26 66 -2 4 -4 10 -5 15 -1 4 -2 10 -1 15
0 4 -3 7 -9 7 -5 0 -10 6 -10 14 0 7 -8 24 -19 37 -10 13 -16 30 -14 37 3 6 0
12 -5 12 -5 0 -21 17 -35 38 -37 55 -73 93 -81 85 -3 -3 -6 1 -6 10 0 8 -9 18
-19 22 -11 3 -22 13 -25 21 -3 8 -10 12 -16 9 -5 -3 -10 -1 -10 4 0 21 -38 11
-44 -11z"/>
<path d="M333 999 c-23 -8 -32 -29 -12 -29 5 0 7 -5 4 -10 -3 -6 0 -13 9 -16
8 -3 12 -12 9 -20 -3 -7 2 -17 11 -20 9 -3 16 -11 16 -16 0 -12 80 -124 86
-120 2 1 4 0 4 -3 0 -3 14 -18 32 -33 18 -15 44 -37 58 -49 14 -13 30 -23 37
-23 7 0 13 -4 13 -10 0 -5 8 -7 18 -3 9 3 14 2 9 -2 -4 -5 7 -15 24 -22 18 -7
33 -12 33 -11 14 25 24 58 16 53 -5 -3 -10 -2 -10 3 0 5 -17 17 -39 26 -21 10
-59 37 -85 60 -25 24 -47 41 -49 39 -2 -1 -10 8 -17 22 -7 14 -17 25 -22 25
-4 0 -8 6 -8 14 0 8 -7 17 -16 20 -8 3 -12 10 -9 16 3 5 2 10 -4 10 -5 0 -16
12 -24 28 -44 84 -46 86 -84 71z"/>
<path d="M143 915 c0 -11 9 -31 19 -44 10 -13 15 -28 11 -34 -3 -5 -1 -7 4 -4
6 4 13 -3 17 -16 3 -12 17 -34 31 -49 14 -16 23 -28 20 -28 -4 0 7 -14 24 -31
17 -17 28 -35 25 -41 -4 -6 -3 -8 2 -5 5 3 20 -8 33 -24 13 -16 28 -26 34 -22
6 4 7 1 3 -6 -5 -8 0 -14 13 -18 11 -3 18 -9 15 -14 -3 -5 1 -9 8 -9 8 0 20
-9 28 -20 8 -11 20 -20 27 -20 7 0 13 -4 13 -9 0 -5 12 -14 28 -21 47 -20 72
-34 72 -43 0 -4 5 -5 10 -2 6 3 10 1 10 -5 0 -6 5 -8 11 -5 6 4 8 14 5 22 -3
8 -1 11 4 8 12 -7 13 25 2 40 -4 6 -27 21 -51 34 -47 25 -64 38 -115 83 -17
15 -42 37 -55 48 -13 11 -21 20 -18 20 4 0 -6 13 -21 29 -40 42 -62 70 -62 79
0 5 -9 18 -20 30 -12 12 -18 22 -16 22 3 0 -6 17 -20 38 -21 30 -32 37 -59 37
-27 0 -33 -4 -32 -20z"/>
</g>
</svg>
