<?xml version="1.0" standalone="no"?>
<!DOCTYPE svg PUBLIC "-//W3C//DTD SVG 20010904//EN"
 "http://www.w3.org/TR/2001/REC-SVG-20010904/DTD/svg10.dtd">
<svg version="1.0" xmlns="http://www.w3.org/2000/svg"
 width="420.000000pt" height="420.000000pt" viewBox="0 0 420.000000 420.000000"
 preserveAspectRatio="xMidYMid meet">
<metadata>
Created by potrace 1.11, written by Peter Selinger 2001-2013
</metadata>
<g transform="translate(0.000000,420.000000) scale(0.100000,-0.100000)"
fill="#000000" stroke="none">
<path d="M175 3630 c-2 -3 -4 -695 -4 -1538 l0 -1532 94 0 95 0 0 123 0 123
35 -4 35 -4 0 -119 0 -120 98 3 97 3 0 176 c0 169 -1 176 -20 176 -48 1 -49 2
-28 26 11 12 25 37 32 56 8 25 11 389 11 1336 l0 1302 -220 0 c-122 0 -222 -3
-225 -7z m252 -1407 l-2 -1238 -32 -3 -33 -3 0 1240 0 1241 34 0 34 0 -1
-1237z"/>
<path d="M702 3632 c-9 -3 -12 -355 -12 -1538 l0 -1534 100 0 100 0 0 1535 c0
844 -3 1535 -7 1536 -30 3 -171 5 -181 1z"/>
<path d="M952 2098 c1 -1290 3 -1538 14 -1539 8 0 41 -1 74 -1 111 0 100 -14
100 121 0 125 2 132 46 123 21 -4 21 -8 20 -123 -1 -72 3 -120 9 -122 6 -1 48
-2 95 -2 l85 1 0 1539 0 1540 -222 1 -222 1 1 -1539z m256 122 l-1 -1240 -34
0 -33 0 0 1240 0 1240 35 0 34 0 -1 -1240z"/>
<path d="M1463 2100 l0 -1537 94 -2 93 -1 0 1450 0 1450 33 0 34 0 1 -1432 c0
-788 1 -1441 1 -1451 1 -15 11 -17 96 -15 l95 1 0 1537 0 1537 -224 0 -223 0
0 -1537z"/>
<path d="M2066 3631 c-2 -4 -3 -696 -3 -1538 l0 -1533 222 0 223 0 1 1415 0
1415 -94 0 -95 0 0 -1325 0 -1325 -25 0 c-14 0 -28 -1 -32 -2 -5 -2 -10 649
-13 1447 l-5 1449 -88 1 c-49 1 -90 -1 -91 -4z"/>
<path d="M2697 3627 c-49 -12 -103 -65 -116 -114 -7 -26 -11 -511 -11 -1495
l0 -1458 148 0 c159 0 204 11 248 61 47 53 46 16 46 1548 0 795 -1 1451 -1
1457 -1 14 -260 15 -314 1z m123 -1526 c0 -1324 0 -1359 -19 -1364 -46 -12
-44 -65 -44 1355 0 740 3 1350 7 1356 4 7 18 12 32 12 l24 0 0 -1359z"/>
<path d="M3076 3631 c-2 -3 -3 -694 -2 -1536 l1 -1530 93 -3 92 -2 0 1450 0
1450 34 0 33 0 1 -1402 c0 -772 1 -1424 1 -1450 l1 -48 95 2 95 1 -2 1536 -3
1536 -218 1 c-119 1 -219 -1 -221 -5z"/>
<path d="M3708 3620 c-46 -14 -85 -48 -107 -93 -21 -43 -21 -44 -21 -1505 l0
-1462 222 2 221 3 -1 1395 c0 767 -1 1402 -1 1410 -1 13 -16 15 -88 14 -49 -1
-91 -2 -95 -3 -5 0 -8 -595 -8 -1321 0 -726 -3 -1320 -7 -1321 -5 0 -16 -2
-25 -4 -10 -2 -21 2 -25 8 -8 13 -6 2684 2 2697 4 6 60 10 126 10 l119 0 1 28
c0 15 1 54 1 87 l0 60 -143 2 c-79 1 -156 -2 -171 -7z"/>
</g>
</svg>
