<?xml version="1.0" standalone="no"?>
<!DOCTYPE svg PUBLIC "-//W3C//DTD SVG 20010904//EN"
 "http://www.w3.org/TR/2001/REC-SVG-20010904/DTD/svg10.dtd">
<svg version="1.0" xmlns="http://www.w3.org/2000/svg"
 width="260.000000pt" height="260.000000pt" viewBox="0 0 260.000000 260.000000"
 preserveAspectRatio="xMidYMid meet">
<metadata>
Created by potrace 1.11, written by Peter Selinger 2001-2013
</metadata>
<g transform="translate(0.000000,260.000000) scale(0.100000,-0.100000)"
fill="#000000" stroke="none">
<path d="M1514 2443 c-4 -10 -6 -21 -6 -25 1 -5 -4 -8 -10 -8 -7 0 2 -13 20
-30 18 -16 36 -30 39 -30 7 0 79 -75 120 -124 12 -14 19 -26 15 -26 -3 0 3 -7
14 -15 10 -8 15 -15 11 -15 -4 0 -3 -6 3 -12 27 -33 58 -87 52 -93 -4 -3 -1
-10 6 -14 8 -4 14 -14 16 -22 1 -8 7 -24 14 -35 6 -12 8 -24 5 -28 -3 -3 -1
-6 6 -6 7 0 10 -4 7 -8 -3 -5 1 -18 9 -29 10 -15 24 -20 50 -19 19 1 35 5 35
9 -1 11 -11 39 -30 82 -26 60 -33 79 -32 88 1 4 -2 7 -8 7 -5 0 -10 6 -10 14
0 7 -9 25 -20 38 -10 14 -16 28 -13 32 3 3 1 6 -5 6 -7 0 -12 6 -12 14 0 8 -3
16 -7 18 -12 5 -83 100 -83 110 0 5 -4 7 -8 4 -5 -3 -15 6 -22 19 -7 14 -18
25 -23 25 -5 0 -20 10 -32 23 -34 34 -76 67 -85 67 -4 0 -11 -8 -16 -17z"/>
<path d="M1067 2344 c-3 -3 -11 -6 -19 -7 -36 -6 -89 -51 -96 -81 -3 -17 -5
-34 -4 -38 1 -5 -3 -8 -10 -8 -9 0 -9 -3 0 -12 7 -7 12 -21 12 -33 0 -26 29
-84 58 -115 12 -13 22 -28 22 -33 0 -14 27 -37 35 -29 5 4 5 2 2 -4 -4 -7 0
-17 8 -24 8 -7 15 -19 15 -27 0 -8 5 -11 10 -8 6 3 10 -1 10 -9 0 -9 4 -16 8
-16 5 0 15 -11 22 -25 7 -13 17 -22 21 -19 5 3 6 -2 3 -10 -3 -9 -1 -16 4 -16
6 0 14 -9 17 -20 4 -11 11 -18 16 -15 5 4 9 0 9 -8 0 -7 16 -31 35 -52 19 -22
33 -41 31 -43 -2 -1 8 -15 23 -30 14 -15 33 -38 41 -51 8 -13 25 -34 38 -47
13 -13 20 -24 16 -24 -4 0 3 -8 14 -19 12 -10 19 -21 15 -25 -14 -14 -39 -4
-58 24 -11 16 -26 30 -33 30 -7 0 -11 4 -8 9 3 5 -1 11 -9 15 -8 3 -15 12 -15
21 0 8 -11 20 -25 25 -14 5 -25 14 -25 20 0 6 -15 27 -32 46 -50 55 -70 78
-105 120 -63 76 -98 118 -118 141 -11 12 -31 37 -45 54 -14 17 -39 46 -57 65
-18 19 -30 34 -27 34 4 0 -18 23 -47 50 -30 28 -60 48 -67 45 -7 -2 -15 1 -18
9 -5 13 -21 17 -59 16 -39 -2 -45 -3 -45 -12 0 -5 -4 -7 -8 -4 -13 8 -74 -55
-68 -71 3 -7 2 -13 -2 -13 -4 0 -7 -11 -7 -25 0 -14 3 -25 7 -25 3 0 4 -9 1
-20 -3 -11 0 -20 6 -20 6 0 11 -9 11 -20 0 -11 5 -20 11 -20 5 0 8 -4 5 -9 -3
-4 7 -22 22 -39 15 -17 43 -49 62 -72 19 -23 50 -57 68 -75 17 -19 32 -39 32
-45 0 -5 4 -9 9 -8 5 2 10 -1 12 -7 2 -5 20 -26 41 -46 21 -20 38 -39 38 -43
0 -4 18 -25 40 -47 22 -22 40 -42 40 -46 0 -3 10 -16 23 -28 55 -56 77 -83 77
-94 0 -7 4 -10 9 -6 6 3 15 -4 22 -16 6 -12 29 -39 50 -60 22 -21 39 -41 39
-44 0 -3 11 -17 25 -31 24 -24 34 -64 17 -64 -15 0 -202 196 -202 212 0 6 -3
9 -6 5 -7 -6 -34 16 -34 28 0 12 -27 34 -34 28 -3 -4 -6 -1 -6 6 0 6 -18 29
-40 51 -22 22 -40 44 -40 50 0 6 -4 8 -10 5 -5 -3 -10 1 -10 10 0 9 -3 14 -7
12 -8 -3 -52 38 -53 48 0 8 -90 94 -90 87 -1 -4 -7 4 -15 18 -8 14 -14 22 -15
17 0 -4 -10 -1 -23 8 -13 8 -37 16 -53 18 -16 2 -36 7 -43 12 -10 5 -12 4 -7
-3 5 -8 -1 -12 -16 -12 -44 -1 -84 -51 -91 -113 -7 -60 30 -121 135 -229 53
-53 93 -100 90 -103 -3 -3 2 -5 11 -5 10 0 17 -4 17 -9 0 -13 73 -87 82 -84 5
2 8 -2 8 -8 0 -6 25 -36 55 -66 30 -30 55 -59 55 -65 0 -5 3 -7 8 -5 4 3 13
-1 20 -9 7 -8 9 -14 5 -14 -4 0 6 -9 22 -20 17 -11 27 -20 24 -20 -4 0 27 -34
69 -75 60 -59 74 -77 64 -87 -9 -9 -12 -9 -12 2 0 7 -3 10 -7 7 -3 -4 -19 7
-35 23 -15 16 -31 31 -36 32 -4 2 -6 6 -5 10 2 5 -2 8 -7 8 -6 0 -33 23 -60
50 -28 28 -50 48 -50 46 0 -2 -28 22 -62 54 -101 95 -107 100 -113 100 -3 0
-17 8 -31 17 -33 22 -109 30 -98 11 5 -10 4 -10 -6 -1 -11 10 -16 9 -27 -5 -9
-11 -12 -12 -7 -2 4 8 -7 2 -24 -14 -18 -17 -32 -38 -32 -48 0 -10 -5 -18 -10
-18 -7 0 -7 -7 0 -20 6 -11 8 -25 5 -30 -3 -6 -1 -10 4 -10 6 0 11 -9 11 -20
0 -11 5 -20 12 -20 6 0 9 -3 5 -6 -3 -4 16 -28 42 -55 27 -27 46 -51 43 -54
-3 -3 0 -5 7 -5 6 0 29 -18 50 -40 21 -22 41 -37 44 -33 4 3 7 2 7 -3 0 -6 7
-19 16 -30 8 -10 12 -12 8 -4 -4 8 16 -9 45 -37 29 -29 57 -53 62 -53 6 0 7
-5 4 -10 -3 -6 1 -10 10 -10 9 0 13 -4 10 -10 -3 -5 0 -10 7 -10 8 0 31 -18
51 -40 20 -23 37 -38 37 -34 0 3 14 -8 30 -26 17 -18 30 -30 30 -27 0 3 15 -9
34 -26 82 -78 138 -127 144 -127 4 0 16 -11 26 -25 10 -14 25 -25 32 -25 8 0
14 -5 14 -10 0 -6 11 -15 25 -22 13 -6 22 -14 20 -19 -3 -4 4 -10 15 -14 11
-3 20 -11 20 -16 0 -5 6 -9 14 -9 8 0 16 -3 18 -7 10 -24 127 -81 151 -75 4 1
7 -2 7 -6 0 -9 3 -10 58 -13 18 -1 35 -6 39 -12 3 -5 9 -4 13 4 7 10 12 10 22
1 11 -9 18 -9 28 1 10 10 11 9 5 -3 -8 -13 -7 -13 8 -1 12 9 17 10 17 2 0 -8
5 -9 19 -1 11 5 30 10 43 10 13 0 28 4 33 9 6 6 23 12 40 15 16 3 31 10 33 16
2 5 7 8 12 5 4 -3 24 6 44 20 20 13 36 22 36 19 0 -3 12 7 27 21 15 14 31 25
34 25 8 0 56 40 103 85 17 16 33 29 36 28 3 0 11 5 18 13 7 8 8 14 3 14 -6 0
0 10 12 23 12 13 25 22 30 20 4 -2 7 1 7 7 0 6 11 26 24 43 22 31 70 121 75
142 9 45 13 62 18 75 12 32 12 170 0 170 -8 0 -8 3 -2 8 12 9 18 32 8 32 -5 0
-8 17 -9 38 -1 35 -8 116 -20 212 -3 25 -6 51 -6 58 -1 6 -4 12 -7 12 -3 0 -7
17 -9 37 -3 49 -9 80 -18 94 -4 7 -3 9 3 6 6 -4 10 7 10 26 0 37 8 91 17 105
3 5 8 24 11 43 3 18 11 36 16 40 6 3 10 9 10 13 -1 3 0 8 0 11 1 3 2 8 3 13 1
4 9 21 19 38 9 17 13 34 10 38 -4 3 -1 6 5 6 7 0 12 6 12 13 0 7 8 23 17 37
24 34 23 75 -1 103 -21 23 -54 42 -68 39 -5 -1 -8 3 -8 9 0 5 -4 7 -10 4 -5
-3 -18 -1 -29 5 -14 7 -22 7 -27 -1 -4 -8 -9 -7 -15 2 -6 10 -9 11 -9 2 0 -7
-3 -12 -7 -11 -20 5 -73 -15 -67 -24 4 -7 2 -8 -5 -4 -12 8 -95 -47 -85 -57 3
-3 -4 -10 -15 -17 -12 -6 -21 -17 -21 -24 0 -8 -7 -17 -16 -20 -9 -4 -14 -9
-11 -13 4 -3 3 -11 -3 -17 -11 -15 -21 -64 -25 -136 -4 -64 -7 -78 -23 -106
-6 -12 -8 -24 -5 -28 3 -3 -1 -6 -11 -6 -9 0 -15 -4 -12 -9 5 -8 -40 -26 -56
-23 -5 1 -8 -3 -8 -10 0 -9 -3 -9 -12 0 -7 7 -21 12 -31 12 -11 0 -28 10 -38
22 -11 11 -19 18 -19 15 0 -7 -61 58 -96 102 -10 13 -29 34 -42 47 -13 13 -20
24 -16 24 5 0 1 6 -7 13 -24 19 -79 94 -79 106 0 6 -7 11 -15 11 -8 0 -15 5
-15 11 0 11 -50 82 -62 87 -5 2 -8 10 -8 18 0 8 -4 14 -10 14 -5 0 -10 5 -10
11 0 7 -10 20 -22 30 -11 11 -18 19 -14 19 4 0 -2 10 -14 22 -11 12 -20 28
-20 35 0 7 -7 13 -15 13 -8 0 -15 6 -15 13 0 7 -9 23 -20 35 -11 12 -20 24
-20 27 0 6 -40 53 -92 107 -21 21 -38 36 -38 32 0 -4 -8 0 -18 9 -20 18 -68
38 -75 31z"/>
<path d="M1405 2300 c-11 -18 -14 -50 -4 -50 5 0 23 -13 39 -30 16 -16 34 -30
40 -30 5 0 10 -7 10 -17 0 -9 3 -13 7 -10 3 4 18 -10 32 -31 13 -20 31 -43 38
-50 7 -7 16 -24 19 -38 3 -13 10 -24 15 -24 5 0 9 -6 9 -13 0 -7 9 -30 20 -52
11 -22 20 -45 20 -51 0 -21 29 -44 48 -38 9 3 23 8 31 10 11 4 11 7 0 20 -7 9
-15 26 -16 37 -2 12 -8 24 -13 25 -6 2 -8 8 -4 13 3 5 -4 23 -16 39 -12 17
-18 30 -13 30 4 0 3 4 -2 8 -6 4 -19 24 -30 45 -11 21 -28 45 -37 54 -10 9
-18 22 -18 30 0 7 -6 13 -12 13 -7 0 -24 16 -38 34 -14 19 -28 32 -32 29 -5
-2 -8 -1 -8 4 0 8 -61 53 -73 53 -3 0 -9 -4 -12 -10z"/>
<path d="M334 1012 c-13 -8 -14 -42 -2 -42 5 0 6 -4 3 -10 -3 -5 -2 -10 4 -10
6 0 13 -11 17 -25 3 -14 10 -22 15 -19 5 3 9 -1 9 -9 0 -8 8 -23 18 -35 9 -12
26 -33 37 -47 20 -26 55 -61 104 -103 42 -36 50 -42 58 -42 4 0 19 -9 33 -20
14 -11 33 -20 42 -20 9 0 19 -6 21 -12 5 -12 11 16 8 35 0 4 4 7 10 7 6 0 3 8
-7 18 -10 9 -20 17 -23 17 -37 0 -231 181 -231 215 0 6 -4 10 -10 10 -5 0 -10
7 -10 15 0 8 -5 15 -11 15 -5 0 -8 4 -5 9 3 5 -1 14 -9 21 -8 7 -15 18 -15 24
0 13 -39 19 -56 8z"/>
<path d="M140 940 c-10 -6 -11 -10 -2 -10 6 0 11 -3 10 -7 0 -5 6 -24 15 -43
9 -19 17 -30 17 -25 0 6 7 -3 15 -20 22 -46 51 -87 90 -129 11 -12 35 -38 53
-59 17 -21 32 -35 32 -31 0 4 9 -5 21 -20 11 -14 27 -26 35 -26 8 0 12 -4 9
-10 -3 -5 1 -10 10 -10 8 0 18 -7 21 -15 4 -8 10 -12 15 -9 5 3 9 0 9 -5 0 -6
7 -11 15 -11 8 0 15 -5 15 -12 0 -6 3 -9 6 -5 3 3 24 -5 45 -19 45 -28 45 -28
47 -11 1 6 4 23 7 37 5 22 0 28 -49 54 -31 16 -53 33 -49 39 3 5 1 7 -4 4 -6
-4 -23 5 -39 18 -16 14 -33 25 -37 25 -5 0 -5 5 -2 10 3 6 1 10 -6 10 -12 0
-56 45 -102 103 -12 15 -30 37 -39 49 -10 11 -23 33 -30 49 -7 16 -17 29 -21
29 -5 0 -5 5 -2 10 3 6 2 10 -4 10 -5 0 -13 9 -16 20 -7 22 -57 28 -85 10z"/>
</g>
</svg>
